<svg width="224" height="224" viewBox="0 0 224 224" fill="none" xmlns="http://www.w3.org/2000/svg">
<circle cx="112.5" cy="110.5" r="104.5" fill="#DEDEDE"/>
<path d="M114.974 28C81.2688 28 61.6074 60.8492 59.2668 78.2123C56.9261 95.5754 70.5018 102.145 79.8644 99.7989C89.227 97.4525 84.5457 87.1285 79.8644 78.2123C75.1831 69.2961 96.2489 46.771 114.974 46.771C133.699 46.771 145.87 63.6648 145.87 78.2123C145.87 92.7598 130.89 96.514 112.633 99.7989C94.3763 103.084 79.8644 117.162 79.8644 138.749C79.8644 160.335 96.717 166.905 112.633 166.905C128.55 166.905 140.721 152.358 140.721 142.034C140.721 131.709 143.062 123.263 130.89 123.263C118.719 123.263 124.805 136.402 126.677 142.034C128.55 147.665 121.996 154.704 112.633 154.704C103.271 154.704 95.3126 149.073 95.3126 138.749C95.3126 128.425 98.9833 120.473 112.633 117.162C141.657 110.123 166 105.899 166 78.2123C166 50.5251 148.679 28 114.974 28Z" fill="#575A65"/>
<path d="M100.462 185.207C100.462 178.637 107.484 174.413 112.633 174.413C117.783 174.413 123.868 178.168 123.868 185.207C123.868 192.246 118.251 196 112.633 196C107.016 196 100.462 191.777 100.462 185.207Z" fill="#575A65"/>
</svg>
